<svg xmlns="http://www.w3.org/2000/svg" xmlns:xlink="http://www.w3.org/1999/xlink" version="1.1" id="Layer_1" x="0px" y="0px" width="100px" height="100px" viewBox="0 0 100 100" enable-background="new 0 0 100 100" xml:space="preserve">
<g>
	<path d="M29.404,40.078c0,0,18.537,8.084,25.812,16.475c0.602-0.341,1.231-0.805,1.742-1.451c0.007-0.01,0.014-0.019,0.021-0.028   c0.127-0.163,0.245-0.339,0.354-0.524c0.02-0.032,0.038-0.065,0.057-0.099c0.098-0.176,0.186-0.361,0.264-0.558   c0.015-0.038,0.032-0.073,0.047-0.112c0.086-0.235,0.163-0.48,0.216-0.746c0.722-3.605,0.319-14.424-11.381-20.438   c-0.196-0.101-0.396-0.184-0.592-0.28c-0.494-0.243-0.987-0.484-1.484-0.702c-0.31-0.136-0.621-0.255-0.932-0.382   c-0.397-0.163-0.793-0.328-1.192-0.477c-0.331-0.124-0.662-0.234-0.993-0.349c-0.38-0.131-0.759-0.263-1.139-0.383   c-0.338-0.106-0.675-0.205-1.013-0.303c-0.375-0.109-0.748-0.216-1.121-0.315c-0.338-0.089-0.674-0.174-1.011-0.257   c-0.372-0.091-0.742-0.177-1.112-0.26c-0.333-0.074-0.666-0.146-0.997-0.214c-0.372-0.076-0.741-0.146-1.11-0.215   c-0.324-0.06-0.646-0.121-0.968-0.175c-0.377-0.064-0.749-0.122-1.122-0.18c-0.305-0.047-0.611-0.096-0.913-0.139   c-0.399-0.057-0.792-0.107-1.186-0.158c-0.266-0.034-0.534-0.071-0.796-0.103c-0.542-0.065-1.074-0.125-1.602-0.181   c-0.283-0.03-0.562-0.06-0.84-0.087c-0.454-0.046-0.906-0.092-1.347-0.134c-0.308-0.029-0.602-0.057-0.903-0.084   c-0.511-0.048-1.01-0.095-1.5-0.141c-0.316-0.03-0.628-0.06-0.934-0.089c-0.279-0.027-0.547-0.056-0.817-0.084   c-0.274-0.028-0.545-0.058-0.811-0.087c-0.258-0.029-0.509-0.06-0.758-0.091c-0.256-0.032-0.504-0.065-0.75-0.1   c-0.235-0.033-0.467-0.067-0.693-0.104c-0.868-0.138-1.672-0.296-2.379-0.495c-5.387-1.519-7.97-4.698-8.583-5.551   c-0.038-0.052-0.062-0.086-0.085-0.121c-0.039-0.058-0.066-0.099-0.066-0.099s5.206,43.255,38.458,43.756   c0.004,0,0.007,0.001,0.011,0.001c0.452-0.027,0.871-0.07,1.273-0.122c0.044-0.006,0.089-0.011,0.133-0.017   c0.396-0.054,0.768-0.118,1.117-0.192c0.024-0.006,0.046-0.011,0.069-0.017c0.718-0.157,1.342-0.357,1.883-0.59   c0.013-0.005,0.026-0.011,0.039-0.016c2.008-0.872,2.86-2.174,3.206-3.314c-0.308-0.419-0.625-0.836-0.963-1.246   C44.428,49.288,29.404,40.078,29.404,40.078z"/>
	<path d="M55.216,56.553c-1.103,0.622-2.109,0.81-2.109,0.81s0.263,1.087-0.13,2.383c6.598,8.994,6.367,19.81,6.367,19.81   s3.232-14.095-3.795-22.619C55.443,56.808,55.326,56.68,55.216,56.553z"/>
	<path d="M92.321,45.987c-0.338,0.47-1.773,2.242-4.778,3.089c-0.409,0.115-0.874,0.207-1.381,0.286   c-0.08,0.013-0.163,0.025-0.246,0.037c-0.191,0.028-0.389,0.054-0.593,0.079c-0.077,0.009-0.153,0.019-0.232,0.028   c-0.23,0.027-0.467,0.052-0.71,0.077c-0.057,0.005-0.112,0.011-0.169,0.017c-0.645,0.064-1.33,0.125-2.048,0.194   c-0.046,0.004-0.094,0.009-0.14,0.014c-0.349,0.034-0.705,0.07-1.067,0.109c-0.278,0.03-0.558,0.061-0.842,0.095   c-0.125,0.015-0.253,0.033-0.38,0.049c-0.243,0.031-0.487,0.063-0.736,0.098c-0.142,0.021-0.284,0.044-0.427,0.065   c-0.238,0.036-0.476,0.074-0.716,0.115c-0.15,0.026-0.302,0.054-0.453,0.082c-0.237,0.044-0.476,0.09-0.716,0.139   c-0.154,0.032-0.309,0.065-0.463,0.1c-0.241,0.053-0.482,0.11-0.725,0.169c-0.154,0.038-0.309,0.077-0.463,0.118   c-0.249,0.065-0.499,0.137-0.749,0.21c-0.146,0.044-0.294,0.086-0.44,0.133c-0.268,0.084-0.534,0.175-0.802,0.27   c-0.129,0.045-0.259,0.088-0.389,0.136c-0.313,0.116-0.624,0.243-0.936,0.375c-0.082,0.034-0.165,0.065-0.247,0.101   c-0.4,0.175-0.8,0.361-1.195,0.564c-1.55,0.797-2.734,1.747-3.647,2.757c-2.926,3.231-2.993,7.089-2.688,8.619   c0.003,0.016,0.011,0.027,0.015,0.043c0.041,0.188,0.102,0.357,0.172,0.518c0.025,0.057,0.05,0.111,0.078,0.165   c0.081,0.153,0.17,0.298,0.271,0.426c0.024,0.029,0.051,0.055,0.076,0.084c0.057,0.066,0.113,0.134,0.174,0.193   c-0.001-0.007-0.001-0.015-0.003-0.021c0.198,0.192,0.406,0.361,0.618,0.489c4.063-4.608,12.663-7.84,12.663-7.84   s-6.406,3.809-10.769,8.814c-0.205,0.234-0.391,0.477-0.577,0.719c0.08,0.324,0.224,0.679,0.496,1.02   c-0.001,0.002-0.001,0.005-0.001,0.007c0.019,0.023,0.043,0.046,0.063,0.069c0.049,0.057,0.098,0.112,0.154,0.168   c0.043,0.043,0.093,0.083,0.14,0.125c0.074,0.064,0.149,0.127,0.235,0.188c0.099,0.071,0.203,0.142,0.318,0.207   c0.066,0.038,0.144,0.072,0.217,0.107c0.089,0.044,0.178,0.088,0.276,0.129c0.08,0.033,0.167,0.063,0.253,0.094   c0.109,0.039,0.223,0.075,0.343,0.109c0.091,0.025,0.183,0.051,0.279,0.073c0.142,0.034,0.294,0.063,0.451,0.091   c0.091,0.016,0.177,0.033,0.272,0.047c0.253,0.036,0.52,0.064,0.809,0.082c0.009,0.001,0.016,0.002,0.024,0.003h0.001h0.001   c18.511-0.277,21.411-24.355,21.411-24.355L92.321,45.987z"/>
</g>
</svg>