<?xml version="1.0" encoding="utf-8"?>
<!-- Generator: Adobe Illustrator 16.0.0, SVG Export Plug-In . SVG Version: 6.00 Build 0)  -->
<!DOCTYPE svg PUBLIC "-//W3C//DTD SVG 1.1//EN" "http://www.w3.org/Graphics/SVG/1.1/DTD/svg11.dtd">
<svg version="1.1" id="Calque_1" xmlns="http://www.w3.org/2000/svg" xmlns:xlink="http://www.w3.org/1999/xlink" x="0px" y="0px"
	 width="80px" height="80px" viewBox="0 0 80 80" enable-background="new 0 0 80 80" xml:space="preserve">
<g>
	<path d="M40.253,22.54c2.446,0,4.431-1.989,4.431-4.433c0-2.445-1.985-4.433-4.431-4.433c-2.443,0-4.431,1.988-4.431,4.433
		C35.823,20.551,37.81,22.54,40.253,22.54z M40.253,16.208c1.045,0,1.897,0.852,1.897,1.898c0,1.046-0.852,1.898-1.897,1.898
		s-1.896-0.852-1.896-1.898C38.357,17.06,39.208,16.208,40.253,16.208z"/>
	<path d="M49.856,27.063l0.752-1.164c0.363-0.481,0.688-0.993,0.982-1.521l0.101-0.156h-0.01c0.983-1.822,1.551-3.903,1.551-6.117
		c0-7.157-5.824-12.979-12.979-12.979c-7.155,0-12.978,5.822-12.978,12.979c0,2.213,0.565,4.293,1.55,6.117h-0.009l0.098,0.152
		c0.295,0.53,0.621,1.042,0.984,1.524l0.536,0.829C20.403,30.5,13.238,40.173,13.238,51.51C13.238,66.117,25.121,78,39.726,78
		c14.606,0,26.49-11.883,26.49-26.49C66.216,40.493,59.443,31.048,49.856,27.063z M40.253,8.295c5.411,0,9.81,4.402,9.81,9.811
		c0,2.151-0.703,4.136-1.884,5.756l-0.233,0.361l-4.122,6.351l-3.571,5.503l-3.564-5.502l-4.114-6.353h0.023
		c-0.057-0.071-0.109-0.146-0.164-0.218c-1.242-1.644-1.989-3.685-1.989-5.899C30.444,12.697,34.844,8.295,40.253,8.295z
		 M25.21,33.31c2.077-1.655,4.446-2.948,7.007-3.826l8.036,12.429l7.844-12.133c2.652,1.029,5.08,2.507,7.162,4.374
		c-0.592-0.027-1.19-0.02-1.799,0.068c-5.133,0.744-8.703,5.526-7.957,10.662c0.111,0.763,0.321,1.485,0.598,2.17l-0.012,0.003
		c0.197,0.458,0.356,0.938,0.431,1.454c0.468,3.22-1.772,6.222-4.993,6.688c-3.224,0.467-6.222-1.772-6.688-4.994
		c-0.168-1.146,0.022-2.258,0.464-3.246l-0.012-0.006c0.42-0.888,0.596-1.904,0.445-2.947c-0.412-2.833-3.049-4.804-5.884-4.392
		c-0.265,0.038-0.51,0.113-0.759,0.188l-0.007-0.021c-0.173,0.049-0.343,0.104-0.522,0.13c-2.141,0.312-4.134-1.179-4.446-3.318
		C23.938,35.342,24.385,34.151,25.21,33.31z M29.097,72.245c-6.37-3.28-11.032-9.4-12.316-16.684
		c0.832,0.681,1.776,1.229,2.815,1.582c5.583,1.85,9.63,7.134,9.63,13.329C29.226,71.074,29.176,71.663,29.097,72.245z
		 M39.726,74.832c-2.658,0-5.202-0.468-7.583-1.293c0.185-0.997,0.295-2.019,0.295-3.068c0-7.535-4.933-13.953-11.683-16.29
		l0.005-0.014c-2.388-0.747-4.137-2.949-4.15-5.576c0.517-4.107,2.101-7.879,4.474-11.034c0.79,3.592,4.24,6.026,7.936,5.49
		c0.34-0.048,0.667-0.131,0.989-0.225l0.001,0.001c0.097-0.028,0.195-0.059,0.3-0.074c1.1-0.16,2.13,0.606,2.29,1.711
		c0.06,0.407-0.01,0.808-0.176,1.153l0.004,0.003c-0.696,1.525-0.983,3.261-0.726,5.043c0.718,4.95,5.331,8.394,10.28,7.676
		c4.949-0.718,8.392-5.33,7.675-10.28c-0.114-0.774-0.331-1.503-0.617-2.192l0.008-0.002c-0.185-0.455-0.332-0.928-0.403-1.434
		c-0.496-3.402,1.873-6.572,5.274-7.066c2.19-0.318,4.289,0.56,5.639,2.128c-0.018,0-0.034-0.006-0.055-0.006
		c-3.15,0-5.718,2.565-5.718,5.718c0,1.493,0.587,2.838,1.523,3.856l-0.006,0.007c0.953,1.047,1.552,2.427,1.552,3.953
		c0,0.658-0.133,1.281-0.334,1.873c-0.203,0.541-0.308,1.118-0.308,1.729c0,2.59,2.003,4.698,4.537,4.918
		C56.99,69.386,48.993,74.832,39.726,74.832z M61.177,58.411c-0.99,0-1.795-0.805-1.795-1.792c0-0.234,0.064-0.502,0.146-0.71
		l0.012,0.004c0.308-0.912,0.482-1.884,0.482-2.896c0-2.368-0.92-4.52-2.409-6.137l-0.009,0.008
		c-0.398-0.451-0.651-1.036-0.651-1.688c0-1.404,1.144-2.549,2.55-2.549c1.014,0,1.927,0.604,2.341,1.461
		c0.78,2.324,1.205,4.812,1.205,7.396c0,2.312-0.351,4.544-0.979,6.653C61.806,58.319,61.501,58.411,61.177,58.411z"/>
</g>
</svg>
