<?xml version="1.0" encoding="utf-8"?>
<!-- Generator: Adobe Illustrator 16.0.0, SVG Export Plug-In . SVG Version: 6.00 Build 0)  -->
<!DOCTYPE svg PUBLIC "-//W3C//DTD SVG 1.1//EN" "http://www.w3.org/Graphics/SVG/1.1/DTD/svg11.dtd">
<svg version="1.1" id="Layer_1" xmlns="http://www.w3.org/2000/svg" xmlns:xlink="http://www.w3.org/1999/xlink" x="0px" y="0px"
	 width="100px" height="100px" viewBox="0 0 100 100" enable-background="new 0 0 100 100" xml:space="preserve">
<path d="M76.404,33.502c0,7.217-5.85,13.066-13.064,13.066c-7.217,0-13.067-5.85-13.067-13.066S63.34,2.589,63.34,2.589
	S76.404,26.287,76.404,33.502z"/>
<path d="M49.657,57.637c0,7.219-5.85,13.067-13.066,13.067c-7.217,0-13.067-5.851-13.067-13.067
	c0-7.215,13.067-30.912,13.067-30.912S49.657,50.421,49.657,57.637z"/>
<path d="M76.404,84.011c0,7.218-5.85,13.067-13.064,13.067c-7.217,0-13.067-5.852-13.067-13.067S63.34,53.098,63.34,53.098
	S76.404,76.795,76.404,84.011z"/>
</svg>
