<?xml version="1.0" encoding="utf-8"?>
<!-- Generator: Adobe Illustrator 16.0.0, SVG Export Plug-In . SVG Version: 6.00 Build 0)  -->
<!DOCTYPE svg PUBLIC "-//W3C//DTD SVG 1.1//EN" "http://www.w3.org/Graphics/SVG/1.1/DTD/svg11.dtd">
<svg version="1.1" id="Layer_1" xmlns="http://www.w3.org/2000/svg" xmlns:xlink="http://www.w3.org/1999/xlink" x="0px" y="0px"
	 width="81.836px" height="100px" viewBox="0 0 81.836 100" enable-background="new 0 0 81.836 100" xml:space="preserve">
<path fill="none" d="M28.847,49.859c0.141-0.789,2.072-1.121,4.495-0.833l24.667-28.933c-6.135-7.645-14.723-13.37-24.847-15.851
	l-9.964,56.685l7.883-9.247C29.644,51.131,28.743,50.443,28.847,49.859z M34.331,40.242c2.772-0.862,5.243-0.845,5.518,0.038
	c0.275,0.884-1.75,2.301-4.521,3.164c-2.772,0.863-5.243,0.846-5.519-0.038C29.534,42.521,31.558,41.105,34.331,40.242z"/>
<ellipse transform="matrix(-0.9265 0.3764 -0.3764 -0.9265 91.9639 110.2617)" fill="#1F1A17" cx="35.21" cy="64.115" rx="1.676" ry="5.258"/>
<path fill="#1F1A17" d="M64.403,12.592L64.403,12.592l-3.962,4.647C53.215,8.487,42.967,2.154,30.922,0l-11.74,65.637L0,88.139
	c20.858,17.781,52.193,15.285,69.976-5.572C87.756,61.708,85.262,30.373,64.403,12.592z M33.161,4.243
	c10.125,2.48,18.712,8.206,24.847,15.851L33.342,49.027c-2.423-0.288-4.354,0.044-4.495,0.833c-0.104,0.583,0.797,1.272,2.232,1.822
	l-7.883,9.248L33.161,4.243z M67.167,80.173c-15.756,18.483-43.009,21.39-62.248,7.164l59.275-69.953
	C81.47,34.11,82.984,61.62,67.167,80.173z"/>
<ellipse transform="matrix(0.9548 -0.2972 0.2972 0.9548 -10.8613 12.2412)" fill="#1F1A17" cx="34.829" cy="41.842" rx="5.257" ry="1.677"/>
<ellipse transform="matrix(-0.9744 -0.225 0.225 -0.9744 80.7278 110.5742)" fill="#1F1A17" cx="46.663" cy="50.688" rx="5.258" ry="1.676"/>
<ellipse transform="matrix(-0.7607 -0.6491 0.6491 -0.7607 35.3413 129.0249)" fill="#1F1A17" cx="41.452" cy="57.999" rx="5.258" ry="1.639"/>
</svg>
