<?xml version="1.0" encoding="utf-8"?>
<!-- Generator: Adobe Illustrator 16.0.0, SVG Export Plug-In . SVG Version: 6.00 Build 0)  -->
<!DOCTYPE svg PUBLIC "-//W3C//DTD SVG 1.1//EN" "http://www.w3.org/Graphics/SVG/1.1/DTD/svg11.dtd">
<svg version="1.1" id="Your_Icon" xmlns="http://www.w3.org/2000/svg" xmlns:xlink="http://www.w3.org/1999/xlink" x="0px" y="0px"
	 width="100px" height="100px" viewBox="0 0 100 100" enable-background="new 0 0 100 100" xml:space="preserve">
<g>
	<path d="M46.238,9.683c0,0-7.183,6.908-7.183,18.603c0,11.697,5.721,19.709,12.712,24.868c6.996,5.156,16.112,11.693,16.112,22.378
		c0,10.684-5.709,13.907-5.709,13.907s2.763-3.314,2.763-8.566c0-5.25-2.854-12.523-11.468-18.786
		c-8.609-6.264-11.739-9.024-15.24-14.83c0,0,2.392,12.063,10.129,22.196c0,0-20.445-14.733-20.445-32.787
		C27.91,18.615,46.238,9.683,46.238,9.683z"/>
	<path d="M48.907,62.73c0,0,12.62,13.721,9.856,26.707c0,0,2.301-2.945,2.301-7.275S58.854,70.375,48.907,62.73z"/>
	<path d="M48.007,16.173c0,0-5.383,17.852,2.757,28.336c0,0-3.354-1.651-5.237-5.547C43.642,35.065,42.382,27.386,48.007,16.173z"/>
</g>
</svg>
