<?xml version="1.0" encoding="utf-8"?>
<!-- Generator: Adobe Illustrator 16.0.0, SVG Export Plug-In . SVG Version: 6.00 Build 0)  -->
<!DOCTYPE svg PUBLIC "-//W3C//DTD SVG 1.1//EN" "http://www.w3.org/Graphics/SVG/1.1/DTD/svg11.dtd">
<svg version="1.1" id="Layer_1" xmlns="http://www.w3.org/2000/svg" xmlns:xlink="http://www.w3.org/1999/xlink" x="0px" y="0px"
	 width="100px" height="100px" viewBox="0 0 100 100" enable-background="new 0 0 100 100" xml:space="preserve">
<g>
	<path d="M92.598,88.684l-4.115,4.114c-1.912,1.909-6.431,3.589-9.67,3.589H21.188c-3.239,0-7.757-1.68-9.669-3.589l-4.116-4.114
		c-0.707-0.707-1.851-0.707-2.555,0c-0.706,0.705-0.706,1.848,0,2.555l4.117,4.117C11.57,97.96,16.939,100,21.188,100h57.625
		c4.25,0,9.617-2.039,12.224-4.645l4.116-4.117c0.707-0.707,0.707-1.85,0-2.555C94.448,87.977,93.305,87.977,92.598,88.684z"/>
	<path d="M25.825,49.764c0.225,0.092,0.454,0.136,0.685,0.136c0.71,0,1.387-0.423,1.671-1.122c0.38-0.92-0.062-1.977-0.985-2.355
		c-4.388-1.799-6.086-5.515-6.738-8.315c-1.019-4.374-0.101-9.425,2.186-12.007l0.823-0.927c4.577-5.13,10.272-11.512,10.474-23.333
		c0.016-0.998-0.777-1.821-1.777-1.839c-1.01,0.021-1.819,0.778-1.836,1.776c-0.179,10.479-5.159,16.062-9.558,20.989l-0.835,0.937
		c-3.05,3.449-4.281,9.707-2.995,15.228C18.13,44.055,21.288,47.905,25.825,49.764z"/>
	<path d="M77.354,26.1c2.285,2.582,3.205,7.633,2.188,12.007c-0.652,2.801-2.352,6.517-6.739,8.315
		c-0.923,0.379-1.364,1.436-0.985,2.355c0.287,0.699,0.961,1.122,1.675,1.122c0.228,0,0.46-0.044,0.683-0.136
		c4.539-1.858,7.691-5.709,8.889-10.833c1.285-5.521,0.049-11.778-3-15.228l-0.834-0.937c-4.395-4.927-9.377-10.51-9.557-20.989
		C69.656,0.778,68.814,0.014,67.836,0c-0.997,0.018-1.793,0.841-1.775,1.839c0.199,11.821,5.896,18.203,10.473,23.333L77.354,26.1z"
		/>
	<path d="M98.189,82.53h-6.656c-0.663-2.996-2.795-6.869-5.643-11.019c2.455,0.84,4.813,2.227,6.139,3.766l4.492,5.222
		c0.357,0.414,0.861,0.628,1.371,0.628c0.416,0,0.836-0.146,1.178-0.438c0.757-0.65,0.843-1.793,0.189-2.549l-4.492-5.22
		c-2.574-2.989-7.654-5.382-12.054-5.785C74.639,56.54,63.809,45.587,61.932,43.713c-1.38-1.378-3.234-2.605-5.185-3.545
		c0.489-0.298,1.022-0.647,1.608-1.043c1.582,1.057,4.683,1.522,9.121-1.56c0.724-0.499,1.303-1.078,1.764-1.649
		c-0.348,0.84-1.153,1.825-2.451,2.673c-0.834,0.547-1.068,1.669-0.521,2.503c0.347,0.53,0.924,0.817,1.514,0.817
		c0.339,0,0.683-0.095,0.988-0.292c3.082-2.021,4.725-5,4.176-7.6c-0.402-1.935-1.977-3.31-4.202-3.683
		c-2.813-0.471-5.874,1.191-8.106,2.823c-0.753,0.518-1.436,0.994-2.053,1.422c-4.91,3.419-5.422,3.773-8.586,3.773
		c-3.16,0-3.672-0.354-8.585-3.773c-0.637-0.443-1.347-0.937-2.135-1.479c-2.227-1.614-5.246-3.229-8.022-2.767
		c-2.227,0.373-3.797,1.748-4.203,3.683c-0.547,2.6,1.094,5.579,4.176,7.6c0.307,0.197,0.65,0.292,0.989,0.292
		c0.59,0,1.167-0.287,1.514-0.817c0.547-0.834,0.314-1.956-0.522-2.503c-1.298-0.848-2.104-1.833-2.451-2.673
		c0.46,0.571,1.04,1.15,1.761,1.649c4.444,3.082,7.54,2.616,9.124,1.56c0.588,0.396,1.119,0.745,1.611,1.043
		c-1.952,0.939-3.805,2.167-5.184,3.545c-1.877,1.874-12.708,12.827-20.784,23.423c-4.396,0.403-9.479,2.795-12.053,5.782
		l-4.498,5.224c-0.649,0.756-0.563,1.897,0.192,2.549c0.759,0.648,1.898,0.562,2.549-0.189l4.493-5.223
		c1.324-1.538,3.684-2.926,6.138-3.764c-2.847,4.147-4.979,8.021-5.642,11.018H1.81c-1,0-1.81,0.807-1.81,1.809
		c0,0.997,0.81,1.805,1.81,1.805h48.188h48.191c1,0,1.811-0.808,1.811-1.805C100,83.337,99.189,82.53,98.189,82.53z M51.807,82.53
		V60.24c0-0.997-0.81-1.805-1.81-1.805c-0.996,0-1.807,0.808-1.807,1.805v22.29H12.155c2.329-8.007,17.794-25.587,28.468-36.261
		c2.295-2.291,6.674-4.301,9.374-4.301c2.706,0,7.086,2.01,9.38,4.301C70.051,56.941,85.52,74.521,87.846,82.53H51.807z"/>
</g>
</svg>
