<?xml version="1.0" encoding="utf-8"?>
<!-- Generator: Adobe Illustrator 16.0.0, SVG Export Plug-In . SVG Version: 6.00 Build 0)  -->
<!DOCTYPE svg PUBLIC "-//W3C//DTD SVG 1.1//EN" "http://www.w3.org/Graphics/SVG/1.1/DTD/svg11.dtd">
<svg version="1.1" id="Layer_1" xmlns="http://www.w3.org/2000/svg" xmlns:xlink="http://www.w3.org/1999/xlink" x="0px" y="0px"
	 width="100px" height="100px" viewBox="0 0 100 100" enable-background="new 0 0 100 100" xml:space="preserve">
<path d="M88.9,30.018c-8.615-17.552-25.85-10.372-25.85-10.372s-9.412,3.831-14.359,0.958c-0.136-0.079-0.299-0.15-0.446-0.228
	c-0.13-1.122-0.371-2.188-0.646-3.147c18.21-0.179,27.261-13.7,27.261-13.7C53.463,0.185,48.32,12.083,47.216,16.024
	c-0.61-1.755-1.24-2.919-1.24-2.919h-4.148c1.179,2.16,2.188,4.195,3.025,5.983c-6.052-2.506-13.558-2.156-13.558-2.156
	c-26.008,2.077-25.21,30.8-25.21,30.8C4.489,83.639,25.868,94.77,25.868,94.77c5.767,4.414,15.479,0.638,15.479,0.638
	c6.864,2.395,17.301,0.302,17.301,0.302c6.066,2.555,10.248,0.693,10.248,0.693c5.387-1.215,9.805-8.965,11.986-11.985
	c5.993-8.294,8.66-16.575,8.66-16.575C98.159,45.499,88.9,30.018,88.9,30.018z M37.468,23.646c0,0,11.208,11.257,24.276,4.141
	C61.744,27.787,50.408,39.582,37.468,23.646z"/>
</svg>
