<svg xmlns="http://www.w3.org/2000/svg" xmlns:xlink="http://www.w3.org/1999/xlink" version="1.1" id="Layer_1" x="0px" y="0px" width="100px" height="61.614px" viewBox="0 0 100 61.614" enable-background="new 0 0 100 61.614" xml:space="preserve">
<g>
	<path d="M45.362,40.545c0.423-0.167,0.828-0.356,1.219-0.559c1.646-0.73,3.382-1.449,4.881-2.486c1.5-1,2.666-2.667,3.5-4.333   c0.666-1.667,0.333-2.667,1.833-3.833c1.833-1.667,5.167-1.667,7.333-3c2.334-1.333,3.667-3.667,6.167-4.833   c2.5-1,4.833-1.167,6.833-3c2-1.667,2.334-3.5,3.667-5.833c-1.667-0.833-4.333-1.5-6.167-1l-1.666,0.5   c-1.997,4.833-8.5,6.667-12.5,10.5c-0.064,0.065-0.135,0.119-0.201,0.182c0.011-0.153,0.012-0.31,0.002-0.469   c-0.288-4.732-6.242-6.138-10.104-6.032c-1.956,0.053-3.763,0.721-5.392,1.763c-0.325,0.208-0.645,0.391-0.962,0.563   c-2.189-2.642-5.467-4.423-9.133-4.423c-4.158,0-7.814,2.211-9.953,5.443c-2.844,0.097-5.608,0.603-7.846,2.08   c-2.671,1.763-3.832,4.578-6.067,6.806c-1.36,1.356-3.661,1.683-5.276,2.876c-0.105,0.051-0.195,0.113-0.258,0.186   c-0.119,0.1-0.182,0.186-0.208,0.262c-3.134,4.064,4,5.376,7.024,5.684c3.992,0.406,8.17-0.481,12.17-0.472   c3.729,0.008,6.059,1.919,8.807,3.281c-1.838,0.706-4.414,1.232-5.771,2.438c-1.833,1.833-1,3.667-0.833,6l0.5,0.333   c3.333-0.167,7.166,2,10.333,2.833c-0.167-2.833-1.5-3.667,0.5-6.333c1.833-2.167,4.167-3.333,6.667-4.667   C44.754,40.843,45.056,40.692,45.362,40.545z M23.538,35.935c-2.492-0.006-4.991,0.261-7.475,0.431   c-1.751,0.119-12.729-0.246-9.225-4.343c2.365-1.986,4.823-2.102,6.958-4.617c2.119-2.496,3.079-4.799,6.479-5.857   c1.192-0.372,2.45-0.538,3.726-0.6c-0.805,1.602-1.27,3.384-1.27,5.242c0,1.583,6.234,3.309,11.941,3.309   c5.706,0,11.941-2.302,11.941-3.309c0-2.253-0.716-4.445-1.936-6.326c0.028-0.018,0.058-0.03,0.086-0.048   c3.51-2.192,6.028-2.953,9.971-1.396c2.189,0.864,3.84,2.67,3.477,5.1c-0.062,0.411-0.181,0.769-0.343,1.088   c-3.837,2.181-8.351,2.552-10.907,6.724c-2.695,4.492-7.14,6.16-11.761,8.144c-1.604-0.85-3.083-1.98-4.809-2.634   C28.185,36.006,25.873,35.94,23.538,35.935z"/>
	<path d="M51.278,40.307c2.037-1.024,3.575-2.029,5.079-3.717c2.63-2.952,1.163-5.904,6.102-7.426   c5.005-1.542,7.933-5.65,12.867-7.168c4.59-1.412,6.249-4.272,8.364-8.323c0.414-0.792-1.514-0.543-1.791-0.013   c-2.098,4.017-3.655,6.452-8.248,7.864c-1.691,0.521-2.938,1.232-4.317,2.312c-2.79,2.184-5.459,3.532-8.679,4.904   c-1.233,0.526-3.037,1.254-3.65,2.578c-2.061,4.454-3.212,6.787-8.142,9.007c-2.511,1.13-4.921,2.385-7.228,3.897   c-4.16,2.729-3.155,3.964-2.307,8.203c0.126,0.63,2.065,0.152,1.932-0.518c-0.525-2.625-1.762-4.031,0.475-6.28   C44.272,43.078,48.155,41.877,51.278,40.307z"/>
	<path d="M55.962,47.167c0.833-0.833,2.166-1.333,3.333-1.833c4.5-2.167,4.667-0.833,7.5-4.833c1.422-2.008,3.333-5,5.5-6.333   c1.833-1.167,4.371-1.149,6.5-1.833c4.667-1.5,13.333-10.833,14.5-15.833c-2.166-0.167-5.333-0.5-7.333-1   c-0.5,2.167-3.334,5-4.834,6.167c-1.834,1.333-2.166,3.667-4,5.167c-2.833,2.333-4.5,1.333-7.666,2.167   c-8.509,2.658-7.667,5.333-8.167,7.5s-6,5.167-8.5,5.5c-4.408,0.587-7.833,2-9,7.667L44.128,50c0.834,0.333,1.5,0.167,2.5,0.167   c1.834,0,6,0.667,7.5-0.167C54.462,49.667,55.295,47.667,55.962,47.167z"/>
	<path d="M94.338,17.653c-1.37,4.656-5.085,8.544-8.549,11.788c-2.813,2.634-5.454,3.332-9.125,4.41   c-1.607,0.472-2.827,1.022-4.183,2.035c-1.898,1.418-3.233,3.743-4.57,5.655c-1.54,2.204-3.34,3.014-5.74,3.958   c-3.596,1.414-4.984,2.555-7,5.655c-0.205,0.315,1.588,0.197,1.914-0.306c2.813-4.327,6.82-4.19,10.443-6.875   c1.566-1.161,2.62-3.191,3.727-4.751c2.371-3.345,5.84-4.541,9.638-5.525c6.441-1.669,13.556-10.22,15.359-16.349   C96.401,16.84,94.497,17.111,94.338,17.653z"/>
</g>
</svg>