<?xml version="1.0" encoding="utf-8"?>
<!-- Generator: Adobe Illustrator 16.2.0, SVG Export Plug-In . SVG Version: 6.00 Build 0)  -->
<!DOCTYPE svg PUBLIC "-//W3C//DTD SVG 1.1//EN" "http://www.w3.org/Graphics/SVG/1.1/DTD/svg11.dtd">
<svg version="1.1" id="Background__x2B__Brightness_x2F_Contrast_1_xA0_Image_1_"
	 xmlns="http://www.w3.org/2000/svg" xmlns:xlink="http://www.w3.org/1999/xlink" x="0px" y="0px" width="2742.794px"
	 height="1035.516px" viewBox="0 0 2742.794 1035.516" enable-background="new 0 0 2742.794 1035.516" xml:space="preserve">
<path fill-rule="evenodd" clip-rule="evenodd" fill="#FFFFFF" d="M2142.958,331.936c1.698-1.963,0.461-6.629,0.596-10.032
	C2147.132,322.62,2146.044,331.437,2142.958,331.936z"/>
<path fill-rule="evenodd" clip-rule="evenodd" fill="#FFFFFF" d="M1546.786,437.235c-0.907,3.315,0.26,9.271-1.432,14.069
	C1543.528,448.299,1542.666,437.952,1546.786,437.235z"/>
<path fill-rule="evenodd" clip-rule="evenodd" fill="#FFFFFF" d="M1202.896,248.984c2.968,8.841-1.564,19.069-6.024,24.263
	C1197.593,263.973,1199.139,255.459,1202.896,248.984z"/>
<path fill-rule="evenodd" clip-rule="evenodd" fill="#FFFFFF" d="M955.912,551.216c-0.097,3.117-4.904,1.889-7.913,2.322
	C948.097,550.421,952.904,551.648,955.912,551.216z"/>
<path fill-rule="evenodd" clip-rule="evenodd" fill="#FFFFFF" d="M1123.451,606.866c-1.386-16.621,0.819-29.802,5.357-40.746
	c42.16,2.907,249.813,12.797,296.681,10.858c53.17-2.202,607.465-7.201,720.379-13.238c79.893-4.271,291.2-45.446,342.607-67.019
	c134.16-56.303,228.557-187.835,226.052-285.476c-1.993-77.74-44.828-168.188-115.712-194.074
	c-58.705-16.894-105.442-8.098-154.369,18.717c-16.048,11.399-34.316,28.983-31,50.097c1.354,8.625,20.709,11.35,15.827,20.144
	c-7.368,13.271-26.152-2.275-27.565-13.434c-3.817-30.131,16.555-50.372,41.361-66.105c28.382-18,86.628-29.356,129.054-26.006
	c26.105,2.062,63.433,20.906,81.404,33.079c35.127,27.157,80.883,94.414,88.994,195.929
	c4.008,50.163-35.811,196.534-147.759,259.826c-126.708,71.635-197.369,93.551-393.867,119.059
	C2079.709,624.209,1153.739,610.506,1123.451,606.866z"/>
<path fill-rule="evenodd" clip-rule="evenodd" fill="#FFFFFF" d="M1547.543,431.2c-1.335-1.261-1.431-3.631-0.202-4.996
	c3.735,1.261-1.506,10.504-1.796,5.077C1546.212,431.254,1546.878,431.227,1547.543,431.2z"/>
<path fill-rule="evenodd" clip-rule="evenodd" fill="#FFFFFF" d="M1282.547,344.51c44.489-7.967,122.581-106.204,117.973-200.934
	c-1.31-26.931-9.727-49.309-33.724-66.691c-6.227-4.51-22.69-16.852-54.475-11.269c-38.013,6.677-110.874,78.628-123.05,125.539
	c-11.185,43.092-58.733,182.685-67.448,212.901c-4.19,14.53-32.433,126.978-45.206,168.966
	c-3.339,10.977-13.511,39.88-25.967,26.071c-20.366-22.576,8.788-100.673,22.993-149.052
	c29.139-99.239,56.81-193.489,83.319-290.606c6.477-23.729,13.542-40.527,19.233-68.834c-20.657,6.1-38.809,17.685-59.899,28.445
	c-19.73,10.067-31.767,18.806-38.952,39.113c-4.471,12.637,8.642,39.633-6.936,38.806c-23.004-1.221-6.339-41.611,3.771-55.198
	c18.859-25.343,43.78-33.793,75.077-49.075c16.482-8.048,32.42-15.562,43.993-25.799c8.731-2.048,12.665,4.213,12.637,15.501
	c-0.05,19.921-11.621,48.828-15.276,67.673c17.616-19.259,32.704-40.154,53.73-57.219c21.409-17.375,58.501-43.375,87.348-45.653
	c79.962-6.315,114.865,44.906,117.345,83.408c3.084,47.873-14.302,108.446-44.935,150.94
	c-12.336,17.114-65.744,75.058-142.929,78.843c-37.637,1.846-75.759-23.575-73.096-75.106c0.832-16.106,7.708-42.506,19.406-39.817
	c8.542,1.963,5.631,22.03,4.129,27.856c-2.729,10.583-11.851,28.553-8.253,43.369
	C1210.203,344.884,1258.289,348.854,1282.547,344.51z"/>
<path fill-rule="evenodd" clip-rule="evenodd" fill="#FFFFFF" d="M991.831,596.777c-56.021-0.019-94.174,1.4-142.693,5.124
	c-18.806,1.442-242.484,25.055-277.418,29.961c-50.712,7.122-209.27,50.479-228.643,57.291
	c-64.135,22.558-123.797,47.97-172.414,86.339c-35.029,28.218-59.799,73.044-59.327,121.431
	c0.264,27.024,27.039,100.149,83.838,117.325c38.199,11.552,84.916,14.862,98.154-4.33c2.679-3.884,2.066-15.704,7.081-21.309
	c4.639-5.182,13.946-3.792,17.454,1.969c4.522,7.427-12.821,25.94-17.811,29.526c-17.185,12.355-58.031,18.652-83.404,13.735
	c-93.045-18.031-118.111-104.264-119.308-137.298c-1.308-36.125,1.669-69.479,29.014-111.02
	c44.791-68.044,214.37-140.638,232.63-147.948c63.545-25.438,226.131-56.866,275.332-63.536
	c40.41-5.477,309.769-24.072,372.815-24.861C1007.937,549.388,1002.437,587.037,991.831,596.777z"/>
<path fill-rule="evenodd" clip-rule="evenodd" fill="#FFFFFF" d="M2606.096,131.975c-2.54,6.486-13.667,4.388-17.84,9.352
	c-7.705,9.165-16.139,24.568-24.336,38.38c-11.555,19.468-37.91,29.686-61.141,29.322c-13.269-0.208-27.872-6.5-43.349-4.958
	c-6.386,0.636-21.099,7.86-26.783,4.639c0.245-8.833,14.158-19.518,18.409-22.032c16.768-9.921,20.842-18.103,51.624-27.505
	c-19.112-10.247-70.592,23.326-90.554,46.894c-4.265-0.704-7.171-1.959-9.001-5.304c6.605-9.142,9.145-27.381,16.154-41.092
	c10.199-19.946,20.311-35.167,44.439-39.193c11.457-1.911,24.991-0.612,37.412,0.404c25.08,2.053,51.846,16.585,80.035,11.145
	c9.856-1.902,16.489-7.89,25.537-8.704C2608.354,127.488,2607.39,128.671,2606.096,131.975z"/>
<path fill-rule="evenodd" clip-rule="evenodd" fill="#FFFFFF" d="M2261.707,438.967c-2.856-6.724-19.962-3.471-28.139-2.865
	c-27.562,2.045-49.212,20.592-73.726,33.008c-28.344,14.355-75.876,43.77-87.755,32.574c-14.907-14.049,5.794-35.26,16.923-51.727
	c17.838-26.392,55.198-68.371,63.104-97.631c5.773-21.369-2.761-37.789-16.888-46.355c-21.067-12.775-46.798,6.588-61.384,16.495
	c-10.292,6.99-77.105,62.835-106.503,113.398c11.657-39.347,18.265-81.269,32.2-119.399c13.977-38.247,30.916-74.151,47.672-108.016
	c36.058-7.223,75.928-27.63,91.659-59.755c7.925-16.181,7.409-39.499-4.142-52.875c-18.317-26.38-51.384-8.556-63.745,7.583
	c-20.973,27.381-44.1,64.764-57.19,95.39c-54.178-2.638-134.83-22.533-152.09-23.871c-26.801-2.078-60.044,4.803-81.366,17.303
	c-15.011,8.801-23.234,29.276-12.21,44.53c6.937,9.596,17.324,5.104,16.743-6.683c-0.4-8.157-9.673-14.613-7.843-20.7
	c6.443-21.438,53.855-29.037,75.967-27.093c24.748,2.176,105.612,21.923,156.207,26.707
	c-33.287,70.62-65.411,142.317-89.106,221.783c-0.717,0.352-18.088,51.774-3.793,59.336c7.9,4.179,17.873,4.013,25.203-0.153
	c23.813-13.537,31.38-43.266,46.292-67.927c11.523-19.057,29.179-38.393,46.857-53.938c25.08-22.053,56.523-54.163,78.993-51.235
	c8.188,1.067,7.242,10.478,6.602,14.745c-1.362,9.091-12.72,23.701-19.648,33.822c-20.699,30.24-51.486,65.543-59.864,103.505
	c-7.474,33.86,20.664,50.313,49.86,45.021c10.549-1.912,22.241-8.683,34.486-13.405c10.941-4.22,75.194-46.186,95.142-47.885
	c8.238-0.702,17.432,5.338,28.099,1.865C2254.667,452.456,2264.643,445.873,2261.707,438.967z M2128.666,119.084
	c13.556,13.463-3.903,43.693-19.146,54.485c-8.76,6.202-46.537,24.165-55.917,23.78
	C2067.02,161.506,2099.008,89.628,2128.666,119.084z"/>
<path fill-rule="evenodd" clip-rule="evenodd" fill="#FFFFFF" d="M1809.806,475.266c-11.449-4.648-18.125-14.694-18.199-29.289
	c-0.309-60.529,39.799-115.162,55.019-124.326c18.699-11.258,25.97,7.651,17.119,27.33c-4.606,10.244,15.517,24.765,30.622,14.774
	c22.555-14.917,10.368-70.742-42.918-71.323c-42.081-0.459-101.55,81.016-108.721,116.998c-2.2,11.04-4.902,32.031-2.912,44.813
	c0.51,3.275,2.021,8.717,3.559,11.699c29.974,58.126,81.986,31.868,117.632,13.255c17.982-9.39,55.765-31.7,70.181-38.202
	c2.627-6.085-0.977-6.218-0.176-12.503C1884.846,445.875,1847.836,490.703,1809.806,475.266z"/>
<path fill-rule="evenodd" clip-rule="evenodd" fill="#FFFFFF" d="M1698.969,481.348c-6.761,3.243-23.847,8.572-25.938,2.05
	c-7.285-22.717,23.306-76.411,41.718-106.774c6.23-10.274,16.392-25.24,16.61-34.7c0.328-14.13-14.319-26.316-27.665-15.895
	c-6.253,4.883-8.462,10.045-13.221,19.551c-6.831-12.757-16.014-24.41-29.189-28.844c-18.326-6.167-35.587-1.811-52.916,3.142
	c-38.775,11.082-61.33,49.962-74.743,82.089c-7.626,18.268-14.929,44.306-8.443,63.393c0.154,0.455,0.961,3.968,3,8.874
	c23.019,37.119,78.5,27.113,104.479,0.789c1.375,6.158,3.775,10.103,7.601,14.705c7.514,9.042,23.278,11.242,32.459,10.696
	c16.445-0.978,53.515-21.348,72.515-46.47c-0.943-3.057-2.051-3.495-2.602-6.567
	C1738.217,455.911,1708.238,476.902,1698.969,481.348z M1664.396,393.673c-4.354,10.239-8.898,21.487-13.694,32.581
	c-6.063,14.025-10.12,31.529-21.404,39.898c-11.437,8.484-51.834,27.833-60.708,8.461c-9.089-19.842,0.185-56.337,8.294-71.227
	c8.644-15.869,30.846-54.196,53.234-65.372c19.599-9.783,45.13-1.131,53.685,15.843
	C1675.056,369.23,1669.723,381.148,1664.396,393.673z"/>
<path fill-rule="evenodd" clip-rule="evenodd" fill="#FFFFFF" d="M1463.088,493.528c-12.443,1.895-27.745,3.852-39.008,0.577
	c-31.699-9.216-26.628-68.191-13.873-95.517c26.52-8.145,52.832-8.636,86.957-27.538c15.184-8.41,32.491-32.538,29.771-55.743
	c-2.595-22.147-21.454-28.681-42.24-29.823c-25.25-1.387-44.5,17.743-60.817,30.484c-22.314,17.422-44.403,59.567-53.598,85.236
	c-11.02,5.868-33.5,14.616-22.929,26.949c5.738,6.694,10.606-9.942,20.538-11.84c-3.729,25.732,2.256,56.236,15.86,70.417
	c42.318,44.112,118.521,6.38,153.292-18.546c-0.606-3.144-1.326-6.267-2.622-9.151
	C1517.941,469.017,1483.872,490.363,1463.088,493.528z M1500.572,306.859c15.825-0.64,15.398,23.403,8.051,38.206
	c-12.952,26.096-62.088,33.269-94.864,42.37C1431.414,350.17,1470.097,308.093,1500.572,306.859z"/>
<path fill-rule="evenodd" clip-rule="evenodd" fill="#FFFFFF" d="M685.14,440.573c-19.495,19.481-51.84,46.83-89.712,33.654
	c-10.366-3.606-18.453-17.941-20.134-29.538c-6.141-42.357,18.095-103.768,51.727-104.85c11.145-0.358,1.204,16.094,4.048,25.857
	c2.838,9.741,18.875,14.03,30.501,11.776c18.893-3.662,19.554-38.04,6.85-53.32c-8.052-9.685-26.347-16.952-36.698-16.53
	c-23.248,0.947-49.714,14.695-66.61,35.722c-22.752,28.314-39.499,75.237-33.562,110.447c-0.336,0.449,0.7,7.151,3.523,12.868
	c16.691,33.797,54.029,29.833,74.153,27.024c29.631-4.136,75.437-29.734,101.812-66.331c0.408-2.789-2.088-6.253-2.855-8.725
	C706.067,420.66,687.099,438.616,685.14,440.573z"/>
<path fill-rule="evenodd" clip-rule="evenodd" fill="#FFFFFF" d="M1024.435,366.795c-4.903-3.729-8.71-0.947-14.988,0.606
	c-19.944,4.935-36.116,18.13-54.903,28.243c-26.929,14.495-64.177,60.984-78.831,55.232c-7.128-2.797-5.559-13.642-4.927-22.819
	c0.999-14.507,12.909-39.346,22.675-57.964c9.534-18.174,23.239-39.421,20.677-57.883c-1.469-10.588-13.69-21.516-24.967-21.625
	c-9.051-0.087-24.066,8.267-33.39,13.977c-50.285,30.797-78.194,84.262-115.172,121.756c6.823-32.649,20.327-63.729,32.17-95.378
	c11.866-31.713,23.523-68.245,37.216-94.208c11.324-2.001,26.792-6.983,37.475-13.9c19.116-12.377,54.587-65.596,31.414-89.343
	c-1.984-2.034-10.695-10.576-29.421-9.818c-15.246,0.617-26.778,12.434-31.206,20.278c-14.211,25.179-27.89,57.231-40.649,83.712
	c-52.219-6.22-98.935-25.776-149.808-16.958c-20.132,3.49-49.474,20.357-47.06,48.943c1.011,11.972,16.389,19.121,19.187,4.228
	c1.168-6.221-6.006-16.231-3.927-22.86c2.405-7.666,22.505-18.386,38.16-21.56c16.733-3.394,29.847,0.211,41.128,2.339
	c32.515,6.133,68.459,10.825,96.771,17.102c-4.365,15.504-36.404,96.259-39.8,104.695c-7.046,17.501-25.28,67.751-27.064,73.154
	c-2.038,6.173-15.235,33.519-15.612,34.66c-3.349,10.15,1.684,16.325,7.763,18.702c10.865,4.248,19.075,1.784,27.896-3.13
	c22.587-12.583,62.339-92.149,100.86-129.183c14.391-13.835,53.826-49.159,58.859-29.404c2.606,10.227-25.809,46.613-38.096,72.6
	c-10.785,22.81-35.909,70.539-6.434,88.332c14.378,8.68,34.218-0.945,46.719-7.895c43.714-24.301,73.115-70.539,133.937-78.479
	C1024.771,377.727,1027.944,371.433,1024.435,366.795z M833.782,181.352c5.445-10.954,12.213-23.177,17.853-28.745
	c4.904-4.843,11.992-11.094,18.661-8.762c12.317,4.308,6.511,22.376,1.375,33.972c-9.621,21.719-30.872,45.639-59.294,49.779
	C817.56,212.273,825.831,197.344,833.782,181.352z"/>
<path fill-rule="evenodd" clip-rule="evenodd" fill="#FFFFFF" d="M529.337,456.492c-16.337,18.375-59.623,38.536-71.595,28.31
	c-14.255-12.177,22.886-74.157,36.046-98.538c10.097-18.706,28.635-53.012,0.6-49.791c-7.516,0.864-18.359,8.403-21,15.587
	c-34.298-23.739-69.85-24.845-101.241-3.911c-23.975,15.989-36.752,37.228-45.616,59.894c-5.727,14.645-10.392,46.214,0.791,69.024
	c17.618,35.938,72.525,30.099,98.203,3.032c3.26,8.882,15.286,19.154,25.847,20.449c20.54,2.519,47.346-10.192,64.777-21.107
	c9.095-5.695,23.083-21.874,27.262-23.741c-1.489-3.834-4.356-3.26-5.007-7.517C538.038,448.633,529.737,456.042,529.337,456.492z
	 M430.504,442.375c-4.223,11.605-7.712,21.896-17.251,31.216c-8.811,8.608-26.98,19.613-43.438,14.768
	c-25.369-7.468-15.624-58.703-7.691-78.747c8.933-22.572,24.396-44.022,45.437-53.881c16.13-7.558,32.907-15.343,59.717,6.091
	C461.958,376.333,436.831,424.989,430.504,442.375z"/>
<path fill-rule="evenodd" clip-rule="evenodd" fill="#FFFFFF" d="M311.283,585.812c2.588-15.517-18.574-44.798,0.548-46.534
	c18.247-1.655,23.205,37.828,1.103,62.648c-35.898,40.316-85.967,64.36-133.928,66.301c-38.968,1.577-69.321-4.831-84.538-11.592
	C53.18,638.291,33.133,618.282,15.328,582.3c-21.564-43.581-15.993-86.853-9.523-111.706
	c26.121-72.067,76.518-135.083,161.325-143.639c-4.949-16.333-8.157-33.392-9.677-53.653c-20.585-10.012-42.251-24.462-49.442-47.04
	c-4.013-12.598-8.869-30.39-0.023-50.04c6.824-15.158,32.675-37.715,49.231-20.007c8.997,9.624,10.927,43.288-3.338,41.169
	c-13.355-8.723,7.179-27.91-3.494-36.889c-3.664-3.083-7.189-3.572-13.111-2.472c-11.335,2.106-25.549,24.052-26.562,36.103
	c-3.332,39.611,28.954,61.246,46.753,67.165c2.497-11.122,1.082-16.557,18.083-47.77c19.201-35.25,56.502-54.984,81.304-68.343
	c18.567-10.001,43.86-18.528,69.255-19.816c28.465-1.444,77.367,19.882,78.863,56.858c2.931,72.44-78.038,93.127-127.552,100.238
	c-38.806,5.574-60.709,2.207-92.906-1.996c-2.819,10.93-6.717,26.543-3.26,43.903c17.458-1.033,37.955,1.364,59.625,8.111
	c22.045,6.864,40.34,35.34,27.433,56.538c-7.123,11.697-18.402,14.237-39.728,8.331c-22.827-6.321-39.108-30.513-51.127-49.292
	c-50.332,21.963-85.389,78.778-103.303,129.782c-8.579,24.426-13.156,49.604-5.92,76.302c12.41,45.784,35.789,91.42,88.451,98.312
	c44.965,5.886,73.008-6.434,85.606-11.47C283.375,624.556,309.644,595.636,311.283,585.812z M290.519,269.643
	c49.57-6.183,100.604-43.533,101.767-69.671c1.048-23.562-22.265-37.172-40.504-36.392c-4.876,0.208-11.784,0.568-18.944,1.767
	c-13.152,2.202-34.134,6.692-36.728,7.491c-42.999,13.249-94.533,43.213-110.028,94.275
	C232.382,280.481,246.732,275.104,290.519,269.643z M185.957,344.431c11.752,25.308,57.002,60.751,72.559,37.097
	C270.901,362.697,218.193,338.723,185.957,344.431z"/>
<path fill-rule="evenodd" clip-rule="evenodd" fill="#FFFFFF" d="M2383.671,207.136c-42.258-4.996-131.677,24.499-139.402,106.081
	c-7.726,81.582,39.044,99.925,47.507,107.684c8.463,7.758,64.189,22.948,82.643,26.81c7.68,1.607,19.915,11.053,24.818,12.116
	c4.903,1.064,13.098-21.614,39.833-36.216c26.735-14.603,68.745-54.662,70.584-92.126c1.839-37.463-18.636-97.049-85.52-111.121
	c-61.384-0.392-79.079,56.719-81.148,68.004c-5.668,30.921-4.041,71.119,9.659,107.96c-21.562-21.597-49.832-76.623-32.414-125.184
	c17.418-48.562,65.929-58.922,70.295-60.73C2394.891,208.605,2383.671,207.136,2383.671,207.136z"/>
<g>
	<path fill="#FFFFFF" d="M1977.296,760.082c-3.354,3.428-6.124,5.979-8.312,7.655c-6.561,5.104-12.394,7.654-17.496,7.654h-9.623
		c-3.791,0-7.729-1.819-11.811-5.459c-4.885-4.367-7.326-9.57-7.326-15.612c0-2.619,1.165-6.075,3.499-10.371
		c2.915-5.313,6.562-9.607,10.936-12.883c5.687-4.221,12.029-6.333,19.027-6.333c5.395,0,9.222,1.092,11.482,3.276
		c1.895,1.819,2.843,4.548,2.843,8.186c0,5.457-2.808,10.188-8.42,14.19c-2.917,2.111-8.13,4.731-15.638,7.859
		c-5.614,2.329-8.42,4.221-8.42,5.677c0,1.455,1.02,2.93,3.062,4.422c2.04,1.491,4.52,2.236,7.437,2.236
		c5.612,0,10.241-1.203,13.888-3.608c4.957-3.863,9.913-7.765,14.872-11.701V760.082z M1958.159,736.216
		c0-2.259-0.366-3.79-1.094-4.593c-0.729-0.802-1.969-1.203-3.718-1.203c-3.5,0-6.271,1.787-8.312,5.358
		c-2.041,3.573-4.046,7.218-6.014,10.936v8.639c4.227-1.603,7.398-3.098,9.514-4.483
		C1954.95,746.714,1958.159,741.83,1958.159,736.216z"/>
	<path fill="#FFFFFF" d="M2022.896,761.066c-1.897,3.209-4.74,6.233-8.53,9.076c-4.593,3.499-8.785,5.249-12.575,5.249h-9.295
		c-3.209,0-6.271-1.237-9.186-3.711c-4.011-3.35-6.015-8.043-6.015-14.085c0-1.601,2.843-7.479,8.529-17.631
		c5.687-10.153,9.039-15.231,10.061-15.231c1.75,0,2.806,0.364,3.172,1.092c0.145,0.291,0.218,1.055,0.218,2.292v5.893
		c0,2.402,1.969,5.75,5.905,10.042c3.937,4.294,5.905,8.55,5.905,12.769c-0.365,1.603-0.656,2.876-0.875,3.82
		c-0.729,2.912-1.276,4.984-1.64,6.222c3.937-0.51,6.523-1.821,7.764-3.937c1.531-2.552,3.718-4.337,6.562-5.358V761.066z
		 M1998.4,758.471v-7.522c0-1.164-0.62-3.127-1.859-5.89c-0.803-1.672-1.604-3.379-2.405-5.125c-2.042,1.019-3.664,2.58-4.866,4.688
		c-1.203,2.108-2.389,4.217-3.555,6.326c1.094,0.654,1.931,1.435,2.516,2.344c0.582,0.909,0.875,2.09,0.875,3.544
		c0,1.89-0.566,3.634-1.695,5.233c-1.131,1.6-1.695,2.653-1.695,3.163c0,0.654,0.438,1.38,1.312,2.18s1.566,1.199,2.078,1.199
		c1.238,0,2.952-0.871,5.139-2.617C1997.015,763.742,1998.4,761.233,1998.4,758.471z"/>
	<path fill="#FFFFFF" d="M2053.514,722.793c-1.46,0.438-2.753,0.729-3.883,0.875c-1.131,0.146-2.17,0.219-3.116,0.219
		c-1.386,0-2.334,0-2.843,0c-0.729,0-1.241,0.037-1.531,0.109c-0.511,0.146-1.094,0.418-1.75,0.818
		c-0.655,0.399-1.896,4.894-3.718,13.48c-2.187,10.189-3.28,19.103-3.28,26.742c0,1.239,0.273,2.259,0.82,3.059
		s1.438,1.199,2.679,1.199c1.094,0,2.625-0.912,4.593-2.738c2.696-2.483,5.54-6.245,8.529-11.286h2.625v5.256
		c-2.698,4.6-5.778,8.232-9.24,10.896c-3.464,2.665-6.799,3.996-10.006,3.996c-2.771,0-5.213-0.982-7.327-2.949
		c-2.115-1.967-3.171-4.444-3.171-7.431v-10.706c0-2.621,0.875-8.012,2.624-16.171c0.583-2.694,1.494-6.592,2.734-11.69
		c0-0.656-0.476-1.311-1.422-1.967c-1.604-0.946-2.916-1.748-3.937-2.404c0-0.743,0-1.264,0-1.563c0-0.297,0-0.967,0-2.009
		c5.468,0,9.003-3.667,10.607-11.004c1.603-7.335,3.899-11.004,6.889-11.004c1.312,0,2.368,0.551,3.172,1.65
		c0.801,1.101,1.202,2.604,1.202,4.512c0,1.467-0.237,3.063-0.71,4.787c-0.476,1.724-1.112,3.649-1.914,5.777v5.281
		c1.531,0,3.024,0,4.483,0c1.458,0,2.879,0,4.265,0c1.312,0,2.188,0,2.625,0V722.793z"/>
	<path fill="#FFFFFF" d="M2066.416,767.519c0,2.414-1.167,4.425-3.5,6.034c-1.749,1.244-3.171,1.866-4.265,1.866
		c-1.968,0-3.756-0.731-5.358-2.194c-1.604-1.462-2.405-3.036-2.405-4.719c0-1.828,0.801-3.658,2.405-5.486
		c1.896-2.122,4.009-3.184,6.343-3.184c2.843,0,4.774,0.916,5.796,2.744C2066.088,763.751,2066.416,765.396,2066.416,767.519z"/>
	<path fill="#FFFFFF" d="M1930.451,819.018c0,7.109-3.227,13.454-9.678,19.032c-2.788,2.407-9.076,6.455-18.863,12.143
		c-7.272,4.211-11.429,7.848-12.466,10.91l24.604,8.204c1.148,0,3.938-1.776,8.366-5.331c2.46-1.968,4.455-3.28,5.986-3.937v4.101
		c-4.593,6.452-8.584,10.635-11.974,12.549c-3.391,1.914-7.272,2.87-11.646,2.87c-3.883,0-8.283-1.37-13.204-4.111
		c-4.921-2.739-8.722-4.11-11.4-4.11c-0.819,0-2.925,1.258-6.314,3.772c-2.023,1.477-4.019,2.598-5.987,3.362v-4.104
		c3.007-4.981,9.049-11.413,18.125-19.294c10.99-9.523,17.988-15.982,20.996-19.377c6.726-7.607,10.088-14.887,10.088-21.839
		c0-3.611-1.613-6.677-4.839-9.195c-2.68-2.079-5.167-3.12-7.464-3.12c-3.555,0-7.217,1.312-10.989,3.937
		c-4.977,3.445-7.464,7.929-7.464,13.451c0,4.047,1.694,6.725,5.085,8.037c2.733,1.095,4.811,2.188,6.233,3.28
		c-1.477,1.312-2.53,2.202-3.157,2.666c-0.63,0.465-1.163,0.696-1.6,0.696c-0.11,0-0.629-0.054-1.559-0.163
		c-0.931-0.109-1.914-0.164-2.952-0.164c-4.648,0-8.024-1.161-10.129-3.486c-2.105-2.323-3.157-5.59-3.157-9.801
		c0-6.287,3.389-11.837,10.169-16.648c5.577-3.882,10.388-5.823,14.435-5.823h11.236c3.99,0,7.955,1.642,11.893,4.922
		C1927.909,806.658,1930.451,812.183,1930.451,819.018z"/>
	<path fill="#FFFFFF" d="M2000.245,835.906c0,3.608-1.259,8.64-3.772,15.091c-3.008,7.765-6.672,14.135-10.99,19.109
		c-5.468,6.288-11.291,9.432-17.469,9.432h-8.284c-4.921,0-9.788-2.542-14.599-7.627c-5.577-5.905-8.365-13.095-8.365-21.57
		c0-0.656,0-1.284,0-1.887c0-0.601,0.054-1.312,0.164-2.132c-0.164-0.602-0.3-1.038-0.41-1.312c0-0.054-0.027-0.136-0.082-0.246
		c0.11,0.11,0.192,0.164,0.246,0.164c0.164-0.054,0.246-0.628,0.246-1.722c0-5.467,1.559-11.838,4.675-19.11
		c3.116-7.271,7.025-13.368,11.729-18.289c5.248-5.521,10.497-8.283,15.746-8.283h11.4c0.765,0,2.46,0.685,5.085,2.051
		c3.937,2.023,7.107,4.565,9.514,7.627c3.444,4.319,5.167,9.404,5.167,15.255V835.906z M1985.646,833.855v-17.633
		c0-3.444-1.723-6.726-5.167-9.842c-1.148-1.038-2.87-2.269-5.167-3.69c-4.265,0-8.283,2.952-12.056,8.857
		c-2.68,4.211-5.113,9.706-7.3,16.485c-0.82,3.007-1.641,5.986-2.46,8.939v19.766c0.491,3.444,1.065,6.015,1.722,7.709
		c2.077,5.195,5.303,7.792,9.678,7.792c4.482,0,8.447-2.625,11.893-7.874c2.733-4.154,4.975-9.649,6.725-16.484
		C1984.936,842.304,1985.646,837.629,1985.646,833.855z"/>
	<path fill="#FFFFFF" d="M2052.405,802.609c-4.648,11.704-7.792,24.857-9.432,39.46c-1.969,17.665-3.035,26.771-3.199,27.316
		c-1.75,6.782-5.632,10.173-11.646,10.173c-4.047,0-6.069-2.023-6.069-6.071c0-4.429,1.23-10.117,3.69-17.064
		c2.297-5.962,4.661-12.115,7.095-18.46c2.432-6.345,3.649-11.185,3.649-14.521c0-0.931-0.082-1.806-0.246-2.626l-27.393,27.311
		h-1.969v-4.019l41.499-46.584h4.02V802.609z"/>
	<path fill="#FFFFFF" d="M2118.508,815.961c0,3.173-1.586,6.509-4.757,10.009c-7.217,5.742-11.1,8.887-11.646,9.433
		c0.054,0.11,3.116,2.107,9.186,5.99c3.444,2.242,5.167,6.753,5.167,13.535c0,5.251-2.051,9.954-6.151,14.11
		c-3.172,3.173-7.272,5.825-12.302,7.958c-4.048,1.695-7.108,2.542-9.187,2.542h-13.368c-3.883,0-7.573-1.179-11.072-3.537
		c-4.921-3.383-7.381-8.327-7.381-14.834c0-3.937,0.615-6.629,1.846-8.079c1.229-1.447,3.348-2.173,6.355-2.173
		c2.625,0,4.483,0.328,5.577,0.984c1.093,0.656,1.641,2.023,1.641,4.101c0,1.914-0.861,3.813-2.584,5.7
		c-1.722,1.886-2.583,3.76-2.583,5.618c0,2.679,1.23,4.757,3.69,6.232c2.187,1.312,5.057,1.969,8.611,1.969
		c6.179,0,11.29-2.327,15.337-6.981c4.811-5.53,7.218-10.731,7.218-15.604c0-5.475-2.762-9.254-8.284-11.335
		c-3.444-1.313-8.147-1.971-14.106-1.971c-1.039,0-1.791,0-2.255,0c-0.466,0-0.779,0-0.943,0v-4.189
		c4.866-1.149,9.664-2.34,14.394-3.572c4.729-1.232,7.996-2.86,9.801-4.887c2.296-2.573,3.444-6.597,3.444-12.073
		c0-7.501-3.062-11.252-9.186-11.252h-8.201c-1.751,0-3.965,1.04-6.644,3.12c-3.116,2.409-4.675,4.791-4.675,7.146
		c0,2.026,1.012,3.477,3.035,4.352c1.529,0.658,3.58,0.985,6.15,0.985c1.094,0,2.051-0.029,2.871-0.088s1.585-0.119,2.296-0.178
		v3.125c-2.132,0.604-4.347,1.563-6.643,2.878c-1.423,0.823-3.31,1.234-5.659,1.234c-2.899,0-5.359-0.984-7.382-2.955
		c-2.57-2.517-3.854-4.951-3.854-7.305c0.765-1.586,1.559-3.173,2.379-4.759c2.35-3.665,5.412-6.62,9.186-8.864
		c5.357-3.229,11.755-4.843,19.191-4.843c5.249,0,10.06,1.724,14.435,5.168C2116.156,806.39,2118.508,810.82,2118.508,815.961z"/>
</g>
<g>
	<path fill="#FFFFFF" d="M915.39,697.275h19.559v178.637h-21.022V736.916l-44.922,69.051h-3.87l-45.445-69.051v138.996h-20.918
		V697.275h19.804l48.552,73.366L915.39,697.275z"/>
	<path fill="#FFFFFF" d="M1025.935,696.253h14.702l65.515,179.659h-21.41l-19.474-52.938h-62.338l-18.258,52.938h-21.497
		L1025.935,696.253z M1056.668,800.212l-23.574-64.703l-21.861,64.703H1056.668z"/>
	<path fill="#FFFFFF" d="M1135.633,875.912V697.275h36.607c14.782,0,26.514,4.476,35.195,13.427
		c8.681,8.951,13.021,21.057,13.021,36.315c0,10.401-2.128,19.395-6.38,26.981c-4.254,7.588-10.354,13.256-18.303,17.007
		c4.67,3.752,9.238,8.866,13.702,15.344c4.461,6.479,10.737,17.774,18.826,33.887c5.089,10.146,9.168,17.773,12.237,22.889
		l7.74,12.787h-24.893l-6.372-11.771c-0.209-0.425-0.627-1.15-1.253-2.176l-4.074-7.036l-6.477-13.05l-6.998-13.945
		c-4.318-7.335-8.274-13.173-11.87-17.513s-6.843-7.469-9.738-9.383c-2.897-1.914-7.766-2.873-14.607-2.873h-5.445v77.746H1135.633z
		 M1162.827,719.014h-6.275v56.392h7.949c10.598,0,17.867-1.107,21.808-3.325c3.938-2.216,7.007-5.562,9.204-10.037
		c2.196-4.476,3.294-9.568,3.294-15.281c0-5.626-1.221-10.719-3.661-15.28c-2.441-4.56-5.875-7.778-10.302-9.654
		C1180.415,719.953,1173.077,719.014,1162.827,719.014z"/>
	<path fill="#FFFFFF" d="M1359.871,697.275h26.141l-63.377,84.779l78.961,93.857h-28.552l-74.68-88.231v88.231h-20.918V697.275
		h20.918v81.71L1359.871,697.275z"/>
	<path fill="#FFFFFF" d="M1430.555,697.275h82.837v22.762h-61.918v54.473h59.826v22.89h-59.826v55.496h63.905v22.761h-84.824
		V697.275z"/>
	<path fill="#FFFFFF" d="M1538.063,697.02h122.058v22.762h-50.937v156.131h-21.022V719.781h-50.099V697.02z"/>
</g>
<g display="none">
	<path display="inline" d="M866.755,770.993l55.507-82.965h11.432v178.637h-11.4V708.232l-55.59,83.5l-55.8-83.5v158.433h-11.296
		V688.028h11.301L866.755,770.993z"/>
	<path display="inline" d="M1024.911,686.75l67.552,179.915h-11.852l-23.113-61.762h-71.457l-23.029,61.762H951.16l67.545-179.915
		H1024.911z M1053.19,793.395l-31.483-84.14l-31.376,84.14H1053.19z"/>
	<path display="inline" d="M1110.138,688.028h37.444c15.688,0,27.681,4.156,35.979,12.468c8.297,8.312,12.446,19.544,12.446,33.694
		c0,20.631-9.274,35.122-27.821,43.477c4.811,2.812,11.296,11.892,19.454,27.236l33.051,61.762h-13.372l-25.451-48.959
		c-8.505-16.373-15.127-26.585-19.866-30.637c-4.74-4.052-11.677-6.078-20.807-6.078h-19.762v85.674h-11.296V688.028z
		 M1121.434,699.537v69.945h24.266c12.342,0,21.771-3.047,28.292-9.143c6.519-6.094,9.779-14.726,9.779-25.894
		c0-10.997-3.312-19.564-9.937-25.702c-6.625-6.138-16.143-9.207-28.554-9.207H1121.434z"/>
	<path display="inline" d="M1327.792,688.028l-69.95,89.23l76.645,89.406h-14.377l-76.513-89.254v89.254h-11.296V688.028h11.296
		v88.871l70.101-88.871H1327.792z"/>
	<path display="inline" d="M1426.526,688.028v11.509h-68.402v71.48h66.624v11.636h-66.624v72.503h70.075v11.509h-81.371V688.028
		H1426.526z"/>
	<path display="inline" d="M1556.533,688.028v11.509h-54.806v167.128h-11.4V699.537h-54.806v-11.509H1556.533z"/>
</g>
</svg>
