<?xml version="1.0" encoding="utf-8"?>
<!-- Generator: Adobe Illustrator 16.0.0, SVG Export Plug-In . SVG Version: 6.00 Build 0)  -->
<!DOCTYPE svg PUBLIC "-//W3C//DTD SVG 1.1//EN" "http://www.w3.org/Graphics/SVG/1.1/DTD/svg11.dtd">
<svg version="1.1" id="Layer_1" xmlns="http://www.w3.org/2000/svg" xmlns:xlink="http://www.w3.org/1999/xlink" x="0px" y="0px"
	 width="63.182px" height="100px" viewBox="0 0 63.182 100" enable-background="new 0 0 63.182 100" xml:space="preserve">
<path d="M44.944,64.405C33.057,81.441,31.34,95.836,31.34,95.836c-0.265,1.189-1.321,1.189-1.585,0c0,0-2.246-14.395-13.867-31.431
	C6.247,50.932,1.889,45.648,1.889,34.689c0-15.717,12.547-28.264,28.396-28.264c15.715,0,28.657,12.547,28.657,28.264
	C58.942,45.65,50.489,56.348,44.944,64.405z M58.747,34.644c0-15.86-12.441-28.266-28.69-28.266
	C14.84,6.378,2.05,18.786,2.05,34.644c0,15.851,12.791,29.293,28.007,29.293C46.307,63.932,58.747,50.495,58.747,34.644z"/>
<image overflow="visible" width="285" height="284" xlink:href="just-byrd.png"  transform="matrix(0.2033 0 0 0.2033 1.5823 6.2559)">
</image>
</svg>
