<svg xmlns:dc="http://purl.org/dc/elements/1.1/" xmlns:cc="http://creativecommons.org/ns#" xmlns:rdf="http://www.w3.org/1999/02/22-rdf-syntax-ns#" xmlns:svg="http://www.w3.org/2000/svg" xmlns="http://www.w3.org/2000/svg" xmlns:sodipodi="http://sodipodi.sourceforge.net/DTD/sodipodi-0.dtd" xmlns:inkscape="http://www.inkscape.org/namespaces/inkscape" version="1.1" x="0px" y="0px" viewBox="0 0 100 125"><g transform="translate(0,-952.36218)"><path style="text-indent:0;text-transform:none;direction:ltr;block-progression:tb;baseline-shift:baseline;color:#000000;enable-background:accumulate;" d="m 8.0052926,964.3622 c -0.5523,0 -1,0.44772 -1,1 0,0.55228 0.4477,1 1,1 l 11.3125004,0 c 5.2115,12.98498 10.3987,25.97442 15.5937,38.9687 l -4.8437,11.6251 c -0.2727,0.6131 0.2666,1.4221 0.9375,1.4062 l 50,0 c 0.5283,0.01 1.0142,-0.4716 1.0142,-1 0,-0.5283 -0.4859,-1.0074 -1.0142,-1 l -48.5,0 4.2188,-10.0938 49.375,-3.9375 c 0.4076,-0.039 0.7745,-0.3531 0.875,-0.75 l 5.999995,-25.99995 c 0.13,-0.58038 -0.374,-1.21453 -0.968795,-1.21875 l -67.3125,0 -3.75,-9.375 c -0.1496,-0.36985 -0.5386,-0.62914 -0.9375,-0.625 z m 17.5000004,12 65.25,0 -5.5625,24.0625 -48.5313,3.875 z m 15.5,48 c -4.4064,0 -8,3.5936 -8,8 0,4.4065 3.5936,8 8,8 4.4064,0 8,-3.5935 8,-8 0,-4.4064 -3.5936,-8 -8,-8 z m 30,0 c -4.4064,0 -8,3.5936 -8,8 0,4.4065 3.5936,8 8,8 4.4064,0 8,-3.5935 8,-8 0,-4.4064 -3.5936,-8 -8,-8 z m -30,2 c 3.3256,0 6,2.6745 6,6 0,3.3256 -2.6744,6 -6,6 -3.3254,0 -6,-2.6744 -6,-6 0,-3.3255 2.6746,-6 6,-6 z m 30,0 c 3.3254,0 6,2.6745 6,6 0,3.3256 -2.6746,6 -6,6 -3.3256,0 -6,-2.6744 -6,-6 0,-3.3255 2.6744,-6 6,-6 z" fill="#000000" fill-opacity="1" stroke="none" marker="none" visibility="visible" display="inline" overflow="visible"/></g><text x="0" y="115" fill="#000000" font-size="5px" font-weight="bold" font-family="'Helvetica Neue', Helvetica, Arial-Unicode, Arial, Sans-serif">Created by Alfa Design</text><text x="0" y="120" fill="#000000" font-size="5px" font-weight="bold" font-family="'Helvetica Neue', Helvetica, Arial-Unicode, Arial, Sans-serif">from the Noun Project</text></svg>