<?xml version="1.0" encoding="utf-8"?>
<!-- Generator: Adobe Illustrator 16.0.0, SVG Export Plug-In . SVG Version: 6.00 Build 0)  -->
<!DOCTYPE svg PUBLIC "-//W3C//DTD SVG 1.1//EN" "http://www.w3.org/Graphics/SVG/1.1/DTD/svg11.dtd">
<svg version="1.1" id="Layer_1" xmlns="http://www.w3.org/2000/svg" xmlns:xlink="http://www.w3.org/1999/xlink" x="0px" y="0px"
	 width="99.875px" height="100px" viewBox="0 0 99.875 100" enable-background="new 0 0 99.875 100" xml:space="preserve">
<path d="M44.053,31.397L22.163,8.3l12.314,29.461L3.831,30.153l25.994,18.119L0,58.645l31.466,0.969L12.039,84.648l27.089-16.322
	L36.118,100l13.955-28.492l14.5,28.213l-3.555-31.672l27.225,15.906l-19.836-24.62l31.467-1.521l-29.963-9.958l25.723-18.536
	l-30.512,8.021L76.753,7.884L55.41,31.26L49.389,0L44.053,31.397z M67.313,49.932c0,9.718-7.761,17.703-17.377,17.703
	S32.561,59.65,32.561,49.932c0-9.723,7.76-17.567,17.375-17.567C59.552,32.365,67.313,40.209,67.313,49.932z"/>
<path d="M49.936,65.007c8.214,0,14.912-6.772,14.912-15.075c0-8.304-6.698-14.939-14.912-14.939S35.16,41.628,35.16,49.932
	C35.16,58.234,41.722,65.007,49.936,65.007z"/>
</svg>
