<?xml version="1.0" encoding="utf-8"?>
<!-- Generator: Adobe Illustrator 16.0.0, SVG Export Plug-In . SVG Version: 6.00 Build 0)  -->
<!DOCTYPE svg PUBLIC "-//W3C//DTD SVG 1.1//EN" "http://www.w3.org/Graphics/SVG/1.1/DTD/svg11.dtd">
<svg version="1.1" id="Layer_1" xmlns="http://www.w3.org/2000/svg" xmlns:xlink="http://www.w3.org/1999/xlink" x="0px" y="0px"
	 width="100px" height="100px" viewBox="0 0 100 100" enable-background="new 0 0 100 100" xml:space="preserve">
<g id="Captions">
</g>
<g id="Your_Icon">
	<path fill="#FFFFFF" d="M90.253,48.854c0-25.322-18.841-45.923-42-45.923s-42,20.601-42,45.923c0,25.323,18.841,45.923,42,45.923
		c2.525,0,4.576-2.239,4.576-5.003c0-2.762-2.049-5.003-4.576-5.003c-18.115,0-32.851-16.11-32.851-35.919
		c0-19.806,14.736-35.92,32.851-35.92c18.116,0,32.85,16.112,32.85,35.92c0,5.625-1.153,10.997-3.425,15.979
		c-0.028,0.049-0.062,0.094-0.091,0.146c-0.989,1.717-2.685,2.742-4.54,2.742c-2.954,0-5.358-2.625-5.358-5.859l-0.022-31.545
		c-0.002-2.76-2.051-4.996-4.573-4.996h-0.004c-2.334,0.002-4.256,1.917-4.532,4.388c-3.538-2.756-7.861-4.386-12.529-4.386
		c-11.935,0-21.643,10.616-21.643,23.665c0,13.048,9.71,23.665,21.643,23.665c5.086,0,9.764-1.935,13.463-5.155
		c2.082,5.97,7.372,10.227,13.558,10.227c4.777,0,9.165-2.518,11.882-6.772c0.245-0.302,0.465-0.639,0.641-1.015
		C88.635,63.472,90.253,56.181,90.253,48.854z M46.028,62.653c-6.89,0-12.496-6.129-12.496-13.665s5.606-13.664,12.496-13.664
		c6.889,0,12.497,6.131,12.497,13.664C58.524,56.522,52.917,62.653,46.028,62.653z"/>
</g>
</svg>
