<?xml version="1.0" encoding="utf-8"?>
<!-- Generator: Adobe Illustrator 16.0.0, SVG Export Plug-In . SVG Version: 6.00 Build 0)  -->
<!DOCTYPE svg PUBLIC "-//W3C//DTD SVG 1.1//EN" "http://www.w3.org/Graphics/SVG/1.1/DTD/svg11.dtd">
<svg version="1.1" id="Layer_1" xmlns="http://www.w3.org/2000/svg" xmlns:xlink="http://www.w3.org/1999/xlink" x="0px" y="0px"
	 width="100px" height="100px" viewBox="0 0 100 100" enable-background="new 0 0 100 100" xml:space="preserve">
<g id="Layer_1_1_">
</g>
<g id="text">
	<path d="M9.83,50.352c2.332,0,4.238,2.757,6.808,2.757c2.572,0,4.476-2.757,6.808-2.757c2.333,0,4.236,2.757,6.808,2.757
		c2.57,0,4.473-2.757,6.805-2.757s4.238,2.757,6.808,2.757c2.57,0,4.476-2.757,6.808-2.757s4.235,2.757,6.808,2.757
		c2.569,0,4.475-2.757,6.807-2.757s4.238,2.757,6.809,2.757c2.569,0,4.476-2.757,6.807-2.757c2.332,0,4.236,2.757,6.806,2.757
		c2.572,0,4.476-2.757,6.808-2.757c1.283,0,2.438,0.833,3.644,1.585l-10.07,13.78h-35.2h0.267H16.524l-10.07-13.78
		c1.208-0.75,2.362-1.584,3.643-1.584"/>
	<path d="M7.716,44.426c7.099-6.964,26.295-10.082,41.809-10.082c15.517,0,35.978,3.118,43.079,10.082
		c1.996,0.655,4.532,1.246,6.238,2.521c1.664,1.243,0.874,3.031-1.035,3.405c-2.332,0-4.234-2.761-6.805-2.761
		c-2.572,0-4.477,2.761-6.809,2.761s-4.235-2.761-6.809-2.761c-2.568,0-4.476,2.761-6.808,2.761s-4.235-2.761-6.806-2.761
		c-2.571,0-4.476,2.761-6.808,2.761s-4.235-2.761-6.808-2.761c-2.569,0-4.476,2.761-6.808,2.761c-2.333,0-4.236-2.761-6.805-2.761
		c-2.572,0-4.476,2.761-6.808,2.761s-4.236-2.761-6.808-2.761c-2.569,0-4.476,2.761-6.805,2.761c-2.332,0-4.238-2.761-6.808-2.761
		c-2.572,0-4.476,2.761-6.808,2.761c-1.909-0.375-2.699-2.162-1.033-3.405C3.184,45.672,5.718,45.081,7.716,44.426 M50.158,37.051
		c-0.884,0-1.602,2.18-1.602,3.065c0,0.884,0.717,1.602,1.602,1.602c0.884,0,1.602-0.717,1.602-1.602
		C51.76,39.23,51.042,37.051,50.158,37.051z M41.625,37.633c-0.388-0.794-2.664-0.481-3.457-0.092
		c-0.798,0.387-1.127,1.347-0.736,2.142c0.388,0.794,1.348,1.124,2.141,0.736C40.369,40.03,42.013,38.427,41.625,37.633z
		 M60.607,40.412c0.761,0.447,1.742,0.194,2.191-0.569c0.45-0.762,0.197-1.743-0.564-2.192c-0.764-0.449-3.008-0.938-3.457-0.177
		C58.33,38.236,59.846,39.961,60.607,40.412z"/>
</g>
</svg>
